<svg xmlns="http://www.w3.org/2000/svg" xmlns:xlink="http://www.w3.org/1999/xlink" viewBox="0,0,256,256" width="48px" height="48px" fill-rule="nonzero"><g fill="#d102f9" fill-rule="nonzero" stroke="none" stroke-width="1" stroke-linecap="butt" stroke-linejoin="miter" stroke-miterlimit="10" stroke-dasharray="" stroke-dashoffset="0" font-family="none" font-weight="none" font-size="none" text-anchor="none" style="mix-blend-mode: normal"><g transform="scale(5.33333,5.33333)"><path d="M23.994,47.002c8.836,0 16.008,0.225 16.008,0.501c0,0.276 -7.172,0.501 -16.008,0.501c-8.836,0 -16.008,-0.225 -16.008,-0.501c0,-0.276 7.172,-0.501 16.008,-0.501zM4.002,33.989v-19.994c0,-5.521 4.481,-10.003 10.003,-10.003h19.996c5.521,0 10.003,4.481 10.003,10.003v19.993c0,5.521 -4.481,10.003 -10.003,10.003h-19.996c-5.522,0 -10.003,-4.481 -10.003,-10.002zM6.002,34.989v-19.994c0,-4.968 4.033,-9.003 9.003,-9.003h19.996c2.229,0 4.271,0.813 5.844,2.159c-1.652,-1.932 -4.107,-3.159 -6.844,-3.159h-19.996c-4.969,0 -9.003,4.035 -9.003,9.003v19.993c0,2.74 1.224,5.195 3.157,6.845c-1.345,-1.571 -2.157,-3.614 -2.157,-5.844zM40.005,33.915v-19.846c0,-3.355 -2.724,-6.079 -6.079,-6.079h-19.847c-3.356,0 -6.079,2.724 -6.079,6.079v19.847c0,3.356 2.723,6.079 6.079,6.079h19.847c3.355,-0.001 6.079,-2.724 6.079,-6.08zM10.001,33.915v-19.846c0,-2.249 1.828,-4.079 4.079,-4.079h19.847c2.249,0 4.079,1.829 4.079,4.079v19.847c0,2.251 -1.829,4.079 -4.079,4.079h-19.848c-2.25,-0.001 -4.078,-1.829 -4.078,-4.08zM32.006,23.991c0,-4.416 -3.585,-8 -8.001,-8c-4.417,0 -8.001,3.584 -8.001,8c0,4.417 3.584,8 8.001,8c4.416,0 8.001,-3.582 8.001,-8zM18.003,23.991c0,-3.311 2.689,-6 6.001,-6c3.311,0 6.001,2.689 6.001,6c0,3.312 -2.691,6 -6.001,6c-3.311,0 -6.001,-2.688 -6.001,-6zM34.005,14.991c0,-0.552 -0.449,-1 -1.001,-1c-0.552,0 -1.001,0.448 -1.001,1c0,0.552 0.449,1 1.001,1c0.552,0 1.001,-0.448 1.001,-1z"></path></g></g></svg>